<svg viewBox="0 0 500 500" xmlns="http://www.w3.org/2000/svg" xmlns:xlink="http://www.w3.org/1999/xlink" width="100%" id="blobSvg">
  <path id="blob" d="M484,288Q484,326,465,359Q446,392,420.5,420.5Q395,449,360.5,467Q326,485,288,480.5Q250,476,212.5,478.5Q175,481,142,462.5Q109,444,80.5,419Q52,394,37.5,359Q23,324,21.5,287Q20,250,27.5,215Q35,180,50.5,148Q66,116,86.5,85Q107,54,143.5,44Q180,34,215,23Q250,12,287.5,15Q325,18,358,36.5Q391,55,414.5,84Q438,113,453,146Q468,179,476,214.5Q484,250,484,288Z" fill="#00cec9"></path>
</svg>